<mxfile host="app.diagrams.net" modified="2022-06-17T07:18:35.538Z" agent="5.0 (Windows NT 10.0; Win64; x64) AppleWebKit/537.36 (KHTML, like Gecko) Chrome/102.0.0.0 Safari/537.36" etag="9cdWqRcNzhH_gG6r2SSq" version="20.0.1" type="github">
  <diagram id="C5RBs43oDa-KdzZeNtuy" name="Page-1">
    <mxGraphModel dx="1422" dy="762" grid="1" gridSize="10" guides="1" tooltips="1" connect="1" arrows="1" fold="1" page="1" pageScale="1" pageWidth="827" pageHeight="1169" math="0" shadow="0">
      <root>
        <mxCell id="WIyWlLk6GJQsqaUBKTNV-0" />
        <mxCell id="WIyWlLk6GJQsqaUBKTNV-1" parent="WIyWlLk6GJQsqaUBKTNV-0" />
        <mxCell id="60jy4Qz5OVQnuWOx7Vz9-2" style="edgeStyle=orthogonalEdgeStyle;rounded=0;orthogonalLoop=1;jettySize=auto;html=1;" edge="1" parent="WIyWlLk6GJQsqaUBKTNV-1" source="60jy4Qz5OVQnuWOx7Vz9-0" target="60jy4Qz5OVQnuWOx7Vz9-1">
          <mxGeometry relative="1" as="geometry" />
        </mxCell>
        <mxCell id="60jy4Qz5OVQnuWOx7Vz9-0" value="中智异步回调" style="rounded=0;whiteSpace=wrap;html=1;" vertex="1" parent="WIyWlLk6GJQsqaUBKTNV-1">
          <mxGeometry x="120" y="70" width="120" height="60" as="geometry" />
        </mxCell>
        <mxCell id="60jy4Qz5OVQnuWOx7Vz9-5" style="edgeStyle=orthogonalEdgeStyle;rounded=0;orthogonalLoop=1;jettySize=auto;html=1;" edge="1" parent="WIyWlLk6GJQsqaUBKTNV-1" source="60jy4Qz5OVQnuWOx7Vz9-1" target="60jy4Qz5OVQnuWOx7Vz9-3">
          <mxGeometry relative="1" as="geometry" />
        </mxCell>
        <mxCell id="60jy4Qz5OVQnuWOx7Vz9-7" style="edgeStyle=orthogonalEdgeStyle;rounded=0;orthogonalLoop=1;jettySize=auto;html=1;entryX=0;entryY=0.5;entryDx=0;entryDy=0;" edge="1" parent="WIyWlLk6GJQsqaUBKTNV-1" source="60jy4Qz5OVQnuWOx7Vz9-1" target="60jy4Qz5OVQnuWOx7Vz9-6">
          <mxGeometry relative="1" as="geometry" />
        </mxCell>
        <mxCell id="60jy4Qz5OVQnuWOx7Vz9-1" value="根据订单号service支付订单" style="rounded=0;whiteSpace=wrap;html=1;" vertex="1" parent="WIyWlLk6GJQsqaUBKTNV-1">
          <mxGeometry x="120" y="240" width="120" height="60" as="geometry" />
        </mxCell>
        <mxCell id="60jy4Qz5OVQnuWOx7Vz9-3" value="成功则response返回" style="rounded=0;whiteSpace=wrap;html=1;" vertex="1" parent="WIyWlLk6GJQsqaUBKTNV-1">
          <mxGeometry x="120" y="410" width="120" height="60" as="geometry" />
        </mxCell>
        <mxCell id="60jy4Qz5OVQnuWOx7Vz9-6" value="payOrder&lt;br&gt;单独写" style="rounded=0;whiteSpace=wrap;html=1;" vertex="1" parent="WIyWlLk6GJQsqaUBKTNV-1">
          <mxGeometry x="354" y="240" width="120" height="60" as="geometry" />
        </mxCell>
      </root>
    </mxGraphModel>
  </diagram>
</mxfile>
